<svg xmlns="http://www.w3.org/2000/svg" xmlns:xlink="http://www.w3.org/1999/xlink" width="1000" zoomAndPan="magnify" viewBox="0 0 750 749.999995" height="1000" preserveAspectRatio="xMidYMid meet" version="1.0"><defs><clipPath id="1c953a776b"><path d="M 9.96875 280.1875 L 739.71875 280.1875 L 739.71875 469.9375 L 9.96875 469.9375 Z M 9.96875 280.1875 " clip-rule="nonzero"/></clipPath><clipPath id="08f59dc59e"><path d="M 404 280.1875 L 739.71875 280.1875 L 739.71875 469.9375 L 404 469.9375 Z M 404 280.1875 " clip-rule="nonzero"/></clipPath><clipPath id="f79e0993dc"><path d="M 628 297 L 739.71875 297 L 739.71875 469.9375 L 628 469.9375 Z M 628 297 " clip-rule="nonzero"/></clipPath><clipPath id="85f9414efd"><path d="M 674 316 L 739.71875 316 L 739.71875 469.9375 L 674 469.9375 Z M 674 316 " clip-rule="nonzero"/></clipPath><clipPath id="0f72b67483"><path d="M 712 350 L 739.71875 350 L 739.71875 469.9375 L 712 469.9375 Z M 712 350 " clip-rule="nonzero"/></clipPath></defs><g clip-path="url(#1c953a776b)"><path fill="#1a1a1d" d="M 739.710938 295.164062 L 739.710938 454.523438 C 739.710938 462.789062 733 469.496094 724.734375 469.496094 L 24.941406 469.496094 C 16.679688 469.496094 9.96875 462.789062 9.96875 454.523438 L 9.96875 295.164062 C 9.96875 286.898438 16.679688 280.1875 24.941406 280.1875 L 724.734375 280.1875 C 733 280.1875 739.710938 286.898438 739.710938 295.164062 Z M 739.710938 295.164062 " fill-opacity="1" fill-rule="evenodd"/></g><g clip-path="url(#08f59dc59e)"><path fill="#0b65c7" d="M 725.210938 280.523438 C 725.515625 280.5 725.496094 280.257812 728.160156 280.371094 C 728.949219 280.402344 729.484375 280.472656 729.597656 280.488281 C 730.578125 280.617188 730.554688 280.398438 731.167969 280.285156 C 731.796875 280.167969 733.570312 280.746094 733.773438 280.8125 C 735.101562 281.539062 735.058594 281.578125 736.117188 282.664062 C 737.863281 284.457031 738.527344 284.828125 739.402344 286.441406 C 739.746094 287.492188 739.84375 287.457031 739.910156 288.359375 C 739.992188 289.503906 739.535156 289.476562 739.691406 290.621094 C 739.882812 292.046875 739.816406 294.636719 739.808594 297.078125 C 739.109375 297.460938 738.457031 296.945312 737.101562 300.355469 C 737.058594 300.425781 736.816406 300.644531 736.574219 301.261719 C 736.078125 302.527344 735.085938 303.992188 732.074219 309.417969 C 726.773438 318.96875 720.402344 328.710938 718.777344 331.316406 C 716.371094 335.179688 705.617188 351.121094 705.371094 351.4375 C 701.96875 355.808594 681.410156 387.480469 644.316406 427.601562 C 626.25 447.144531 608.535156 463.539062 604.824219 466.710938 C 603.472656 467.863281 603.5 467.867188 602.429688 469.304688 C 602.210938 469.339844 602.035156 469.519531 601.820312 469.554688 C 601.167969 469.664062 574.085938 469.554688 571.675781 469.546875 C 569.902344 469.539062 569.945312 469.285156 569.527344 469.242188 C 569.304688 469.222656 569.082031 469.359375 568.859375 469.335938 C 570.890625 467.390625 570.953125 467.492188 573.160156 465.753906 C 584.199219 457.058594 584.238281 457.125 595.761719 447.570312 C 610.253906 435.546875 627.527344 419.421875 632.261719 414.808594 C 660.203125 387.566406 679.046875 365.96875 698.730469 340.558594 C 705.09375 332.34375 704.929688 332.234375 705.492188 331.527344 C 708.363281 327.921875 714.300781 319.226562 714.742188 318.625 C 719.765625 311.785156 723.074219 306.476562 724.042969 305.046875 C 733.398438 291.289062 735.148438 288.386719 735.484375 287.890625 C 736.535156 286.34375 737.761719 285.738281 736.003906 285.113281 C 735.550781 284.953125 735.617188 285.214844 735.015625 285.996094 C 732.660156 289.046875 732.832031 289.15625 730.488281 292.230469 C 725.390625 298.925781 725.320312 298.867188 724.886719 299.457031 C 721.066406 304.667969 719.5625 305.941406 718.46875 307.339844 C 713.25 314.007812 701.074219 327.644531 695.71875 333.238281 C 691.339844 337.808594 691.453125 337.898438 687.085938 342.472656 C 685.03125 344.628906 672.3125 357.25 667.652344 361.625 C 650.328125 377.898438 643.886719 383.144531 635.074219 390.4375 C 607.726562 413.074219 586.148438 427.050781 584.386719 428.3125 C 578.558594 432.503906 562.152344 442.539062 560.871094 443.394531 C 558.273438 445.125 558.238281 445.050781 543.285156 453.855469 C 534.980469 458.742188 515.730469 468.628906 515.40625 468.871094 C 515.296875 468.949219 515.332031 469.152344 515.222656 469.230469 C 513.984375 469.523438 513.992188 469.539062 513.882812 469.546875 C 513.460938 469.570312 419.15625 469.546875 410.921875 469.546875 C 407.691406 469.546875 407.710938 469.367188 404.480469 469.203125 C 405.816406 468.589844 405.75 468.390625 412.410156 466.621094 C 424.539062 463.398438 446.785156 456.167969 456.566406 452.601562 C 463.484375 450.078125 463.445312 450.003906 470.351562 447.464844 C 477.164062 444.957031 477.070312 444.773438 483.828125 442.1875 C 507.667969 433.054688 542.246094 415.703125 545.125 414.039062 C 547.761719 412.515625 573.9375 399.378906 605.074219 378.96875 C 606.652344 377.933594 617.917969 370.546875 624.652344 365.816406 C 626.53125 364.496094 626.472656 364.441406 628.355469 363.117188 C 635.671875 357.972656 635.578125 357.859375 636.21875 357.417969 C 641.226562 353.980469 641.066406 353.773438 644.050781 351.65625 C 651.601562 346.308594 672.042969 329.675781 672.476562 329.292969 C 672.90625 328.914062 686.808594 317.109375 688.265625 315.792969 C 700.710938 304.542969 700.738281 304.59375 701.796875 303.59375 C 724.835938 281.839844 724.523438 281.515625 725.210938 280.523438 Z M 725.210938 280.523438 " fill-opacity="1" fill-rule="evenodd"/></g><g clip-path="url(#f79e0993dc)"><path fill="#0b65c7" d="M 739.808594 297.078125 C 739.765625 300.296875 739.871094 305.140625 739.800781 316.371094 C 739.488281 316.664062 739.035156 316.78125 738.722656 317.074219 C 738.09375 317.660156 737.183594 320.789062 737.082031 321.125 C 732.03125 334.21875 731.742188 334.082031 728.984375 340.707031 C 726 347.875 720.917969 358.074219 720.367188 359.269531 C 715.949219 368.914062 705.265625 388.839844 703.335938 392.199219 C 703.015625 392.753906 701.226562 395.871094 699.425781 399.160156 C 695.703125 405.941406 684.570312 424.71875 674.710938 439.347656 C 673.316406 441.417969 672.984375 442.503906 657.980469 463.4375 C 654.546875 468.222656 654.46875 468.171875 653.898438 469.332031 C 653.664062 469.363281 653.453125 469.503906 653.21875 469.539062 C 653.148438 469.546875 647.804688 469.546875 642.40625 469.546875 C 631.183594 469.546875 631.195312 469.574219 628.851562 469.285156 C 629.464844 468.136719 629.429688 468.128906 630.3125 467.15625 C 643.257812 452.84375 663.972656 426.101562 668.773438 419.195312 C 671.492188 415.28125 678.339844 406.570312 692.648438 384.375 C 699.042969 374.449219 702.003906 369.339844 702.773438 368.003906 C 703.894531 366.070312 706.277344 362.457031 709.324219 356.949219 C 714.585938 347.429688 714.78125 347.5625 719.8125 337.921875 C 720.320312 336.945312 723.164062 331.492188 726.230469 325.765625 C 727.078125 324.191406 726.863281 324.089844 736.125 305.699219 C 738.183594 301.609375 738.375 301.476562 738.34375 301.417969 C 738.078125 300.945312 737.367188 300.832031 737.101562 300.355469 C 738.457031 296.945312 739.109375 297.460938 739.808594 297.078125 Z M 739.808594 297.078125 " fill-opacity="1" fill-rule="evenodd"/></g><g clip-path="url(#85f9414efd)"><path fill="#0b65c7" d="M 739.800781 316.371094 C 739.769531 326.347656 739.898438 335.9375 739.761719 343.515625 C 739.519531 343.777344 738.574219 343.992188 738.21875 345.675781 C 738.160156 345.960938 737.808594 347.621094 737.449219 349.230469 C 735.085938 359.722656 730.09375 374.511719 729.046875 377.863281 C 721.796875 401.078125 711.84375 425.15625 710.171875 429.199219 C 705.222656 441.167969 705.078125 441.101562 704.652344 442.140625 C 701.53125 449.710938 694.203125 464.839844 692.476562 468.566406 C 692.289062 468.859375 692.574219 468.929688 692.386719 469.222656 C 692.359375 469.261719 692.214844 469.496094 691.851562 469.550781 C 691.335938 469.628906 690.800781 469.546875 690.277344 469.546875 C 690.058594 469.546875 676.140625 469.546875 675.992188 469.546875 C 674.992188 469.527344 674.714844 469.277344 674.546875 469.242188 C 674.773438 468.441406 674.675781 468.421875 675.105469 467.726562 C 675.679688 466.792969 677.054688 464.566406 681.917969 455.796875 C 687.710938 445.359375 693.71875 433.425781 694.707031 431.460938 C 697.097656 426.707031 710.695312 399.683594 721.640625 370.628906 C 731.207031 345.226562 733.34375 336.40625 737.976562 323.460938 C 738.417969 322.222656 738.480469 322.230469 738.4375 322.125 C 738.117188 321.285156 737.410156 321.976562 737.082031 321.125 C 737.183594 320.789062 738.09375 317.660156 738.722656 317.074219 C 739.035156 316.78125 739.488281 316.664062 739.800781 316.371094 Z M 739.800781 316.371094 " fill-opacity="1" fill-rule="evenodd"/></g><g clip-path="url(#0f72b67483)"><path fill="#0b65c7" d="M 739.589844 350.65625 C 739.628906 351.683594 739.9375 359.453125 739.820312 363.527344 C 739.710938 367.46875 739.59375 367.445312 739.542969 371.371094 C 739.449219 371.652344 739.152344 371.5625 738.976562 373.523438 C 738.738281 376.140625 738.777344 376.140625 738.730469 376.367188 C 738.679688 376.628906 738.496094 376.855469 738.441406 377.121094 C 738.203125 378.277344 737.707031 383.683594 737.65625 384.257812 C 737.054688 390.8125 733.628906 413.832031 733.246094 416.398438 C 729.816406 439.421875 723.007812 468.449219 723.007812 468.511719 C 722.996094 468.789062 723.214844 469.046875 723.207031 469.324219 C 722.859375 469.359375 722.914062 469.511719 722.554688 469.546875 C 722.539062 469.546875 722.546875 469.546875 721 469.546875 C 720 469.546875 713.945312 469.546875 713.867188 469.539062 C 713.636719 469.515625 713.429688 469.363281 713.195312 469.339844 C 713.214844 469.042969 712.941406 468.777344 712.960938 468.480469 C 713.027344 467.515625 715.480469 461.515625 719.402344 447.058594 C 719.578125 446.402344 721.53125 440.132812 724.234375 429.167969 C 727.304688 416.710938 727.453125 416.757812 730.003906 404.183594 C 732.679688 390.996094 732.933594 391.0625 734.976562 377.757812 C 735.394531 375.035156 735.933594 372.78125 737.457031 361.375 C 737.792969 358.867188 737.769531 358.882812 738.121094 356.367188 C 738.390625 354.421875 738.390625 354.421875 738.433594 354.257812 C 738.5 353.992188 738.699219 353.769531 738.769531 353.503906 C 738.886719 353.042969 738.914062 352.5625 738.988281 352.09375 C 739.171875 350.953125 739.417969 351.066406 739.589844 350.65625 Z M 739.589844 350.65625 " fill-opacity="1" fill-rule="evenodd"/></g><path fill="#ffffff" d="M 66.019531 386.210938 C 66.285156 386.046875 66.441406 385.808594 66.484375 385.488281 C 66.535156 385.144531 66.628906 384.808594 66.769531 384.484375 C 73.34375 369.746094 79.84375 355.054688 86.261719 340.414062 C 88.0625 336.289062 95.597656 338.375 93.4375 343.136719 C 85.347656 360.96875 77.449219 378.40625 69.75 395.445312 C 68.554688 398.09375 66.539062 398.796875 63.707031 397.554688 C 63.132812 397.304688 62.515625 396.460938 61.855469 395.019531 C 54.972656 379.953125 47.894531 364.398438 40.621094 348.347656 C 39.367188 345.582031 35.636719 339.039062 41.230469 338.296875 C 45.027344 337.792969 45.550781 340.039062 46.925781 343.207031 C 53.042969 357.339844 59.226562 371.621094 65.472656 386.046875 C 65.585938 386.3125 65.769531 386.367188 66.019531 386.210938 Z M 66.019531 386.210938 " fill-opacity="1" fill-rule="nonzero"/><path fill="#ffffff" d="M 113.476562 339.839844 L 113.476562 396.542969 C 113.476562 397.414062 112.765625 398.125 111.894531 398.125 L 106.835938 398.125 C 105.960938 398.125 105.25 397.414062 105.25 396.542969 L 105.25 339.839844 C 105.25 338.964844 105.960938 338.253906 106.835938 338.253906 L 111.894531 338.253906 C 112.765625 338.253906 113.476562 338.964844 113.476562 339.839844 Z M 113.476562 339.839844 " fill-opacity="1" fill-rule="evenodd"/><path fill="#ffffff" d="M 141.628906 354.847656 C 143.703125 350.136719 145.617188 345.386719 147.777344 340.707031 C 149.292969 337.429688 153.96875 337.265625 155.492188 340.78125 C 162.753906 357.5625 170.121094 374.429688 177.597656 391.390625 C 178.574219 393.597656 179.015625 395.851562 176.742188 397.382812 C 174.160156 399.121094 171.179688 397.828125 170.089844 395.164062 C 168.777344 391.929688 167.480469 388.785156 166.210938 385.726562 C 166.023438 385.285156 165.570312 384.992188 165.070312 384.992188 L 137.699219 385 C 137.503906 385 137.367188 385.085938 137.285156 385.257812 C 135.683594 388.917969 134.207031 392.375 132.855469 395.632812 C 131.363281 399.246094 126.363281 398.871094 125.019531 395.257812 C 124.488281 393.808594 125.066406 392.925781 125.636719 391.597656 C 130.949219 379.230469 136.28125 366.980469 141.628906 354.847656 Z M 140.414062 377.816406 C 140.394531 377.863281 140.386719 377.914062 140.386719 377.964844 C 140.386719 378.191406 140.578125 378.378906 140.8125 378.386719 L 162.480469 378.429688 C 162.480469 378.429688 162.484375 378.429688 162.484375 378.429688 C 162.722656 378.429688 162.917969 378.238281 162.917969 378.007812 C 162.917969 377.957031 162.90625 377.902344 162.886719 377.851562 L 152.101562 352.140625 C 152.035156 351.976562 151.875 351.871094 151.695312 351.871094 C 151.515625 351.871094 151.355469 351.972656 151.289062 352.132812 Z M 140.414062 377.816406 " fill-opacity="1" fill-rule="nonzero"/><path fill="#ffffff" d="M 198.171875 390.082031 C 207.738281 390.042969 217.125 390.042969 226.332031 390.082031 C 232.15625 390.109375 232.140625 398.167969 226.347656 398.167969 C 216.101562 398.167969 205.121094 398.167969 193.402344 398.160156 C 191.230469 398.160156 189.441406 396.441406 189.441406 394.347656 C 189.425781 376.519531 189.441406 359.023438 189.492188 341.863281 C 189.5 338.664062 193.164062 337.472656 195.785156 338.800781 C 197.636719 339.75 197.710938 342.074219 197.710938 343.851562 C 197.695312 359.335938 197.691406 374.59375 197.695312 389.628906 C 197.695312 389.929688 197.855469 390.082031 198.171875 390.082031 Z M 198.171875 390.082031 " fill-opacity="1" fill-rule="nonzero"/><path fill="#ffffff" d="M 254.753906 346.066406 C 254.734375 360.863281 254.746094 376.941406 254.785156 394.304688 C 254.792969 398.355469 249.085938 399.460938 246.933594 396.183594 C 246.640625 395.730469 246.492188 395.265625 246.492188 394.78125 C 246.492188 378.542969 246.445312 362.316406 246.355469 346.109375 C 246.355469 345.839844 246.125 345.617188 245.84375 345.617188 C 245.84375 345.617188 245.839844 345.617188 245.835938 345.617188 C 240.074219 345.660156 234.484375 345.65625 229.070312 345.605469 C 224.027344 345.554688 223.988281 338.269531 229.402344 338.261719 C 242.8125 338.242188 257.003906 338.242188 271.980469 338.261719 C 276.992188 338.269531 277.1875 345.511719 271.890625 345.589844 C 266.367188 345.671875 260.828125 345.664062 255.273438 345.566406 C 254.925781 345.5625 254.753906 345.730469 254.753906 346.066406 Z M 254.753906 346.066406 " fill-opacity="1" fill-rule="nonzero"/><path fill="#ffffff" d="M 295.691406 390.78125 C 305.835938 390.761719 316.210938 390.757812 326.808594 390.769531 C 332.753906 390.773438 332.28125 398.140625 326.972656 398.15625 C 314.695312 398.183594 302.761719 398.179688 291.179688 398.148438 C 286.742188 398.140625 286.667969 394.585938 286.699219 391.101562 C 286.855469 375.453125 286.878906 359.378906 286.773438 342.882812 C 286.753906 339.816406 288.230469 338.277344 291.203125 338.261719 C 304.832031 338.199219 316.859375 338.207031 327.28125 338.289062 C 329.4375 338.304688 330.660156 339.308594 330.945312 341.308594 C 331.417969 344.609375 329.253906 345.660156 326.386719 345.65625 C 316.28125 345.640625 306.847656 345.640625 298.089844 345.660156 C 297.199219 345.660156 296.351562 345.597656 295.546875 345.46875 C 295.535156 345.464844 295.527344 345.464844 295.515625 345.464844 C 295.3125 345.449219 295.128906 345.601562 295.113281 345.804688 C 295.113281 345.8125 295.113281 345.820312 295.113281 345.828125 L 295.121094 363.539062 C 295.121094 363.96875 295.34375 364.183594 295.789062 364.183594 C 302.003906 364.171875 308.996094 364.175781 316.765625 364.195312 C 318.460938 364.203125 319.640625 364.378906 320.300781 364.730469 C 322.671875 365.996094 322.761719 369.84375 320.269531 371.097656 C 319.574219 371.453125 318.816406 371.621094 317.996094 371.613281 C 310.371094 371.570312 302.859375 371.574219 295.464844 371.625 C 295.265625 371.625 295.105469 371.78125 295.105469 371.964844 L 295.113281 390.226562 C 295.113281 390.597656 295.304688 390.78125 295.691406 390.78125 Z M 295.691406 390.78125 " fill-opacity="1" fill-rule="nonzero"/><path fill="#ffffff" d="M 352.914062 375.578125 C 352.914062 380.746094 352.917969 386.988281 352.925781 394.296875 C 352.925781 399.390625 344.519531 399.535156 344.511719 393.929688 C 344.507812 375.730469 344.519531 358.621094 344.550781 342.601562 C 344.554688 339.746094 346.003906 338.304688 348.898438 338.277344 C 354.839844 338.207031 360.097656 338.226562 364.664062 338.332031 C 374.566406 338.5625 382.640625 345.4375 383.363281 355.242188 C 383.957031 363.3125 380.65625 369.207031 373.453125 372.933594 C 373.089844 373.121094 373.015625 373.386719 373.238281 373.726562 C 377 379.523438 380.710938 385.261719 384.367188 390.941406 C 385.25 392.304688 385.71875 393.363281 385.777344 394.125 C 385.914062 395.867188 384.96875 397.554688 383.097656 398.003906 C 380.816406 398.550781 379.089844 397.75 377.914062 395.902344 C 373.664062 389.28125 369.3125 382.523438 364.859375 375.625 C 364.632812 375.273438 364.230469 375.054688 363.796875 375.054688 L 353.445312 375.054688 C 353.089844 375.054688 352.914062 375.230469 352.914062 375.578125 Z M 352.964844 345.835938 L 352.84375 367.410156 C 352.84375 367.546875 352.964844 367.664062 353.105469 367.664062 L 363.398438 367.714844 C 369.976562 367.746094 375.417969 362.875 375.453125 356.917969 L 375.453125 356.558594 C 375.480469 350.601562 370.09375 345.671875 363.515625 345.640625 L 353.226562 345.582031 C 353.082031 345.582031 352.964844 345.695312 352.964844 345.835938 Z M 352.964844 345.835938 " fill-opacity="1" fill-rule="nonzero"/><path fill="#ffffff" d="M 405.292969 352.917969 C 405.1875 353.054688 405.136719 353.207031 405.136719 353.375 C 405.140625 367.457031 405.136719 381.148438 405.121094 394.449219 C 405.121094 396.695312 402.792969 398.421875 400.601562 398.117188 C 398.058594 397.765625 396.789062 396.257812 396.789062 393.589844 C 396.773438 378.265625 396.769531 361.253906 396.773438 342.558594 C 396.773438 338.167969 401.824219 336.621094 404.601562 340.183594 C 416.613281 355.570312 427.746094 369.8125 438.003906 382.914062 C 438.554688 383.621094 438.828125 383.53125 438.828125 382.652344 C 438.84375 369.75 438.847656 356.238281 438.84375 342.117188 C 438.84375 337.121094 447.113281 336.816406 447.113281 341.949219 C 447.089844 360.320312 447.078125 377.882812 447.085938 394.636719 C 447.09375 397.375 443.871094 398.746094 441.449219 397.84375 C 439.847656 397.246094 438.984375 395.734375 437.964844 394.4375 C 427.136719 380.585938 416.324219 366.746094 405.527344 352.917969 C 405.5 352.882812 405.457031 352.859375 405.410156 352.859375 C 405.363281 352.859375 405.320312 352.882812 405.292969 352.917969 Z M 405.292969 352.917969 " fill-opacity="1" fill-rule="nonzero"/><path fill="#ffffff" d="M 499.652344 385.511719 C 499.527344 385.199219 499.214844 384.992188 498.867188 384.992188 L 471.359375 385 C 471.09375 385 470.90625 385.117188 470.792969 385.351562 C 469.398438 388.449219 468.039062 391.640625 466.710938 394.925781 C 464.308594 400.890625 456.324219 397.867188 459.003906 391.800781 C 466.324219 375.242188 473.414062 358.933594 480.273438 342.875 C 480.703125 341.867188 481.199219 340.902344 481.761719 339.980469 C 483.261719 337.472656 487.644531 337.65625 488.839844 340.382812 C 496.617188 358.125 504.089844 375.269531 511.257812 391.816406 C 513.953125 398.039062 505.988281 400.5 503.902344 395.65625 C 502.445312 392.269531 501.027344 388.886719 499.652344 385.511719 Z M 473.925781 377.84375 C 473.902344 377.890625 473.894531 377.941406 473.894531 377.996094 C 473.894531 378.214844 474.078125 378.390625 474.304688 378.390625 C 474.304688 378.390625 474.304688 378.390625 474.308594 378.390625 L 496.074219 378.429688 C 496.300781 378.425781 496.484375 378.25 496.484375 378.03125 C 496.484375 377.980469 496.476562 377.933594 496.457031 377.886719 L 485.617188 352.117188 C 485.554688 351.96875 485.402344 351.867188 485.234375 351.867188 C 485.066406 351.867188 484.914062 351.96875 484.851562 352.117188 Z M 473.925781 377.84375 " fill-opacity="1" fill-rule="nonzero"/></svg>