<svg xmlns="http://www.w3.org/2000/svg" xmlns:xlink="http://www.w3.org/1999/xlink" width="1000" zoomAndPan="magnify" viewBox="0 0 750 749.999995" height="1000" preserveAspectRatio="xMidYMid meet" version="1.0"><path stroke-linecap="butt" transform="matrix(0.75, 0, 0, 0.75, -143.229161, -143.229143)" fill="none" stroke-linejoin="miter" d="M 1123.461781 219.519063 C 1089.315948 254.034687 1054.024282 287.310729 1017.576365 319.352395 C 893.175326 428.727393 758.081578 520.836767 612.295122 595.685724 C 563.050331 620.961765 516.529498 642.618015 472.732624 660.649264 C 435.227416 676.081556 400.868042 689.315931 369.6545 700.352389 C 321.904501 717.22218 271.868044 732.539888 219.550336 746.31593 " stroke="#89d9e7" stroke-width="2" stroke-opacity="1" stroke-miterlimit="4"/><path stroke-linecap="butt" transform="matrix(0.75, 0, 0, 0.75, -143.229161, -143.229143)" fill="none" stroke-linejoin="miter" d="M 1162.321155 394.11281 C 1161.14928 394.243019 1160.394072 394.95656 1160.05553 396.258644 C 1115.461781 562.477391 1049.71699 719.758639 962.810741 868.107595 C 962.498241 868.638845 962.0347 868.90447 961.414908 868.90447 L 901.383659 868.90447 C 900.795117 868.90447 900.664909 868.664886 900.993034 868.190928 C 912.435742 851.909678 924.0347 834.664887 935.795117 816.446137 C 1017.84199 689.383639 1083.300323 555.289891 1132.164905 414.164893 C 1140.248239 390.841977 1147.644072 367.138852 1154.89928 343.383644 C 1156.409697 338.420103 1158.508655 331.08677 1161.201363 321.39927 C 1161.237822 321.258645 1161.185738 321.164895 1161.050322 321.123228 L 1160.61803 320.982603 C 1160.373238 320.89927 1160.201363 320.977395 1160.107613 321.216978 C 1101.930531 465.623226 1027.232615 600.659682 936.013867 726.331555 C 930.680533 733.675305 925.19095 741.081555 919.539909 748.555513 C 888.123242 790.050304 855.243035 829.96697 820.899285 868.31072 C 820.550327 868.706553 820.107619 868.90447 819.57116 868.90447 C 791.456577 868.90447 763.029494 868.90447 734.289911 868.90447 C 734.01387 868.90447 733.784703 868.800303 733.602411 868.586761 C 733.550328 868.524261 733.550328 868.461761 733.612828 868.394053 C 864.503451 743.670097 975.696158 604.341974 1067.18574 450.399268 C 1071.701365 442.800309 1076.321156 434.83156 1081.050323 426.493018 C 1103.341989 387.190935 1124.534697 346.498228 1144.61803 304.414895 C 1150.763863 291.545103 1156.237822 279.357604 1161.050322 267.862812 C 1161.102405 267.722187 1161.065947 267.623229 1160.935738 267.55552 L 1160.607613 267.388854 C 1160.394072 267.289895 1160.222197 267.341979 1160.097197 267.545104 C 1142.83678 297.289895 1131.263864 316.972186 1125.368031 326.581561 C 995.310741 538.430516 827.560743 723.305514 626.279496 867.831553 C 625.295121 868.539886 624.190955 868.894053 622.961788 868.894053 L 503.49304 868.920095 C 503.404498 868.920095 503.331582 868.888845 503.27429 868.826345 C 503.18054 868.711761 503.133665 868.597178 503.133665 868.477386 C 503.128457 868.164886 503.269082 867.946136 503.565957 867.815928 C 504.769082 867.263845 505.93054 866.649261 507.045123 865.977386 C 646.612829 782.045096 773.513869 683.164889 887.743034 569.331558 C 980.815949 476.576351 1062.571156 375.404477 1133.36803 265.716979 C 1142.112822 252.175312 1150.263863 238.956563 1157.826363 226.055521 C 1157.904488 225.930521 1157.878447 225.821146 1157.758655 225.737813 L 1157.748238 225.727396 C 1157.58678 225.623229 1157.451363 225.649271 1157.331572 225.795104 C 1123.805531 270.112812 1088.388864 313.685728 1052.071157 353.154478 C 1036.71699 369.831561 1021.305532 386.654477 1005.164907 402.836768 C 991.013866 417.029477 977.571158 430.58156 963.180533 444.086768 C 953.555533 453.123226 943.368033 462.565934 932.62845 472.414892 C 906.138867 496.690934 875.821159 522.32635 841.670118 549.321141 C 751.82637 620.295098 657.576371 681.420097 558.925331 732.69093 C 521.076373 752.357596 487.357624 768.732596 457.769082 781.815929 C 437.118041 790.951346 416.670125 799.904471 395.857625 808.060721 C 384.6545 812.446137 373.420125 816.805512 362.149292 821.149262 C 315.404501 839.170095 267.868044 855.133637 219.534711 869.045095 " stroke="#89d9e7" stroke-width="2" stroke-opacity="1" stroke-miterlimit="4"/><path stroke-linecap="butt" transform="matrix(0.75, 0, 0, 0.75, -143.229161, -143.229143)" fill="none" stroke-linejoin="miter" d="M 1162.362822 396.920102 C 1161.920113 396.701352 1161.685738 396.711769 1161.654488 396.961768 C 1158.404488 424.534685 1154.800322 451.430518 1150.852405 477.638851 C 1149.420113 487.071142 1147.940947 496.175309 1146.39928 504.946142 C 1124.508656 629.623223 1089.623239 750.612805 1041.732615 867.909678 C 1041.690948 868.024261 1041.675323 868.138845 1041.68574 868.253428 C 1041.696157 868.37322 1041.737823 868.482595 1041.800323 868.581553 C 1041.868032 868.675303 1041.951365 868.753428 1042.050323 868.81072 C 1042.15449 868.868011 1042.263865 868.894053 1042.383657 868.894053 L 1080.039906 868.920095 C 1080.305531 868.920095 1080.545115 868.84197 1080.758656 868.68572 C 1080.977406 868.524261 1081.12324 868.321136 1081.201365 868.065928 C 1120.107614 740.743013 1146.08678 610.774265 1159.144072 478.164892 C 1159.914905 470.341976 1160.946155 462.508642 1162.237822 454.659684 " stroke="#89d9e7" stroke-width="2" stroke-opacity="1" stroke-miterlimit="4"/><path stroke-linecap="butt" transform="matrix(0.75, 0, 0, 0.75, -143.229161, -143.229143)" fill="none" stroke-linejoin="miter" d="M 306.112835 1054.680508 C 305.654501 1054.977383 305.31596 1054.868008 305.102418 1054.3628 C 293.607627 1026.753426 282.22221 999.420093 270.956585 972.373218 C 268.425335 966.30551 267.461794 962.008635 260.467002 962.977385 C 250.170127 964.39926 257.039919 976.920093 259.34721 982.21176 C 272.743044 1012.930509 285.774293 1042.70655 298.44096 1071.539883 C 299.65971 1074.295091 300.795126 1075.909675 301.857626 1076.388841 C 307.071168 1078.76905 310.779501 1077.4253 312.982626 1072.357592 C 327.159709 1039.743009 341.696167 1006.368009 356.597209 972.232593 C 360.576376 963.128427 346.701376 959.133635 343.383667 967.02426 C 331.565959 995.050301 319.602418 1023.170092 307.493043 1051.378425 C 307.237835 1051.993008 307.060751 1052.633633 306.97221 1053.3003 C 306.888876 1053.904467 306.602418 1054.368008 306.112835 1054.680508 " stroke="#89d9e7" stroke-width="2" stroke-opacity="1" stroke-miterlimit="4"/><path stroke-linecap="butt" transform="matrix(0.75, 0, 0, 0.75, -143.229161, -143.229143)" fill="none" stroke-linejoin="miter" d="M 393.493042 969.89926 C 393.493042 969.440926 393.446167 968.982593 393.357625 968.529468 C 393.269083 968.081551 393.133667 967.644051 392.961792 967.216968 C 392.784708 966.795093 392.565958 966.388843 392.31075 966.008635 C 392.055542 965.623218 391.763875 965.269051 391.440958 964.946135 C 391.118042 964.61801 390.763875 964.326343 390.378458 964.071135 C 389.99825 963.815927 389.592 963.602385 389.170125 963.425302 C 388.743042 963.248218 388.305542 963.11801 387.852417 963.029468 C 387.4045 962.935718 386.946167 962.894052 386.487833 962.894052 L 385.352417 962.894052 C 384.894083 962.894052 384.43575 962.935718 383.987833 963.029468 C 383.534709 963.11801 383.097209 963.248218 382.670125 963.425302 C 382.24825 963.602385 381.842 963.815927 381.461792 964.071135 C 381.076375 964.331552 380.722209 964.61801 380.399292 964.946135 C 380.071167 965.269051 379.784709 965.623218 379.5295 966.008635 C 379.274292 966.388843 379.055542 966.795093 378.878459 967.216968 C 378.706584 967.644051 378.571167 968.081551 378.482625 968.534676 C 378.394084 968.982593 378.347209 969.440926 378.347209 969.89926 L 378.347209 1070.477383 C 378.347209 1070.935717 378.394084 1071.39405 378.482625 1071.841967 C 378.571167 1072.295092 378.706584 1072.732592 378.878459 1073.159675 C 379.055542 1073.58155 379.274292 1073.9878 379.5295 1074.368008 C 379.784709 1074.753425 380.071167 1075.107591 380.399292 1075.430508 C 380.722209 1075.753425 381.076375 1076.045091 381.461792 1076.3003 C 381.842 1076.555508 382.24825 1076.774258 382.670125 1076.951341 C 383.097209 1077.123216 383.534709 1077.258633 383.987833 1077.347175 C 384.43575 1077.435716 384.894083 1077.482591 385.352417 1077.482591 L 386.487833 1077.482591 C 386.946167 1077.482591 387.4045 1077.435716 387.852417 1077.347175 C 388.305542 1077.258633 388.743042 1077.123216 389.170125 1076.951341 C 389.592 1076.774258 389.99825 1076.555508 390.378458 1076.3003 C 390.763875 1076.045091 391.118042 1075.758633 391.440958 1075.430508 C 391.763875 1075.107591 392.055542 1074.753425 392.31075 1074.368008 C 392.565958 1073.9878 392.784708 1073.58155 392.961792 1073.159675 C 393.133667 1072.732592 393.269083 1072.295092 393.357625 1071.841967 C 393.446167 1071.39405 393.493042 1070.935717 393.493042 1070.477383 L 393.493042 969.89926 " stroke="#89d9e7" stroke-width="2" stroke-opacity="1" stroke-miterlimit="4"/><path stroke-linecap="butt" transform="matrix(0.75, 0, 0, 0.75, -143.229161, -143.229143)" fill="none" stroke-linejoin="miter" d="M 445.331583 994.649259 C 435.482624 1017.873217 425.664916 1041.321134 415.878458 1064.9878 C 414.831583 1067.534675 413.763875 1069.216967 414.74825 1071.998217 C 417.222208 1078.904466 426.425333 1079.623216 429.175333 1072.716967 C 431.659708 1066.477383 434.378458 1059.857592 437.326374 1052.857592 C 437.477416 1052.524258 437.727416 1052.357592 438.086791 1052.357592 L 488.487832 1052.347175 C 488.951374 1052.347175 489.373249 1052.472175 489.753457 1052.732592 C 490.138874 1052.9878 490.414915 1053.326342 490.58679 1053.753425 C 492.925332 1059.607592 495.310748 1065.628425 497.732623 1071.815925 C 499.737832 1076.914883 505.222207 1079.388841 509.977415 1076.060716 C 514.164915 1073.128425 513.347207 1068.815925 511.550332 1064.586758 C 497.789915 1032.133634 484.222207 999.847176 470.852416 967.727385 C 468.050332 960.998218 459.440957 961.315927 456.649291 967.591968 C 452.664916 976.545093 449.144083 985.638843 445.331583 994.649259 " stroke="#89d9e7" stroke-width="2" stroke-opacity="1" stroke-miterlimit="4"/><path stroke-linecap="butt" transform="matrix(0.75, 0, 0, 0.75, -143.229161, -143.229143)" fill="none" stroke-linejoin="miter" d="M 548.560748 1061.216967 C 548.550331 1032.446134 548.560748 1003.243009 548.586789 973.602385 C 548.586789 970.201343 548.451373 965.753426 545.034706 963.940927 C 540.211789 961.39926 533.466998 963.68051 533.456581 969.800301 C 533.362831 1002.644051 533.331581 1036.128425 533.357623 1070.253425 C 533.357623 1070.732592 533.404498 1071.20655 533.498248 1071.680508 C 533.591998 1072.149258 533.732623 1072.602383 533.914915 1073.045092 C 534.097206 1073.4878 534.321165 1073.909675 534.58679 1074.310716 C 534.852415 1074.70655 535.154498 1075.076341 535.498248 1075.414883 C 535.83679 1075.753425 536.201373 1076.055508 536.602415 1076.321133 C 536.998248 1076.586758 537.420123 1076.810716 537.862831 1076.998216 C 538.305539 1077.180508 538.763873 1077.315925 539.232623 1077.409675 C 539.701373 1077.503425 540.175331 1077.5503 540.654498 1077.5503 C 562.232622 1077.560716 582.451372 1077.565925 601.310747 1077.565925 C 611.977413 1077.565925 612.003455 1062.14405 601.279497 1062.086758 C 584.33158 1062.013842 567.045122 1062.013842 549.430539 1062.086758 C 548.852414 1062.086758 548.560748 1061.8003 548.560748 1061.216967 " stroke="#89d9e7" stroke-width="2" stroke-opacity="1" stroke-miterlimit="4"/><path stroke-linecap="butt" transform="matrix(0.75, 0, 0, 0.75, -143.229161, -143.229143)" fill="none" stroke-linejoin="miter" d="M 654.565954 976.894051 C 664.795121 977.076343 674.993037 977.091968 685.164912 976.93051 C 694.92012 976.779468 694.560745 962.920093 685.331579 962.904468 C 657.758663 962.86801 631.623246 962.86801 606.930538 962.904468 C 596.966997 962.920093 597.039914 976.862801 606.326372 976.96176 C 616.295122 977.060718 626.586788 977.071135 637.196163 976.987801 C 637.461788 976.982593 637.685746 977.076343 637.873246 977.258635 C 638.055538 977.440926 638.149288 977.664885 638.149288 977.93051 C 638.315955 1008.946134 638.399288 1039.998217 638.399288 1071.086758 C 638.399288 1072.003425 638.670121 1072.899258 639.216996 1073.763842 C 643.180538 1080.039883 653.685746 1077.9253 653.670121 1070.170092 C 653.597204 1036.940925 653.576371 1006.164884 653.612829 977.847176 C 653.612829 977.201343 653.930538 976.883635 654.565954 976.894051 " stroke="#89d9e7" stroke-width="2" stroke-opacity="1" stroke-miterlimit="4"/><path stroke-linecap="butt" transform="matrix(0.75, 0, 0, 0.75, -143.229161, -143.229143)" fill="none" stroke-linejoin="miter" d="M 727.92012 1062.3628 L 727.909703 1027.414884 C 727.909703 1027.237801 727.972203 1027.081551 728.102412 1026.956551 C 728.23262 1026.831551 728.38887 1026.763842 728.571162 1026.763842 C 742.185745 1026.664884 756.019078 1026.654467 770.055536 1026.737801 C 771.565953 1026.758634 772.961786 1026.430509 774.243036 1025.758634 C 778.831577 1023.352384 778.664911 1015.987801 774.300328 1013.565926 C 773.081578 1012.894051 770.914911 1012.555509 767.789911 1012.545092 C 753.48262 1012.508634 740.60762 1012.498217 729.164912 1012.519051 C 728.347203 1012.519051 727.935745 1012.107592 727.935745 1011.289884 L 727.92012 977.388843 C 727.925328 977.175301 728.003453 976.998218 728.164912 976.857593 C 728.331578 976.716968 728.51387 976.664885 728.722203 976.696135 C 730.206578 976.946135 731.769078 977.071135 733.409703 977.071135 C 749.529495 977.034676 766.899286 977.029468 785.508661 977.05551 C 790.784702 977.071135 794.763869 975.05551 793.894077 968.737801 C 793.368036 964.914885 791.123244 962.987802 787.149286 962.96176 C 767.961786 962.80551 745.815953 962.784677 720.722203 962.904468 C 715.248245 962.935718 712.529495 965.883635 712.565953 971.748218 C 712.76387 1003.321134 712.716995 1034.086759 712.430537 1064.034675 C 712.373245 1070.711758 712.51387 1077.508633 720.680537 1077.524258 C 742.008661 1077.586758 763.977411 1077.591966 786.586786 1077.539883 C 796.357619 1077.508633 797.227411 1063.414883 786.279494 1063.399258 C 766.769078 1063.383633 747.67012 1063.39405 728.987828 1063.430508 C 728.274287 1063.430508 727.92012 1063.076342 727.92012 1062.3628 " stroke="#89d9e7" stroke-width="2" stroke-opacity="1" stroke-miterlimit="4"/><path stroke-linecap="butt" transform="matrix(0.75, 0, 0, 0.75, -143.229161, -143.229143)" fill="none" stroke-linejoin="miter" d="M 835.326368 1033.33155 L 854.38366 1033.33155 C 854.784701 1033.33155 855.154493 1033.4253 855.503451 1033.623217 C 855.85241 1033.815925 856.13366 1034.08155 856.347201 1034.420092 C 864.545118 1047.623217 872.555534 1060.560717 880.378451 1073.227383 C 882.545118 1076.763841 885.727409 1078.3003 889.925326 1077.248216 C 893.368034 1076.388841 895.107617 1073.159675 894.857617 1069.826342 C 894.748242 1068.373217 893.883659 1066.341967 892.263867 1063.732592 C 885.529493 1052.8628 878.696159 1041.878425 871.769076 1030.784675 C 871.362826 1030.133634 871.498243 1029.628426 872.170118 1029.269051 C 885.425326 1022.138842 891.508659 1010.852384 890.409701 995.409676 C 889.081576 976.644051 874.211784 963.487802 855.987826 963.045093 C 847.576368 962.841968 837.894077 962.80551 826.951368 962.935718 C 821.628452 962.987802 818.956577 965.748218 818.951369 971.21176 C 818.894077 1001.873218 818.873244 1034.618009 818.878452 1069.451342 C 818.894077 1080.1753 834.373243 1079.899258 834.373243 1070.159675 C 834.35241 1056.164883 834.347202 1044.222175 834.347202 1034.326342 C 834.347202 1033.659675 834.670118 1033.33155 835.326368 1033.33155 " stroke="#89d9e7" stroke-width="2" stroke-opacity="1" stroke-miterlimit="4"/><path stroke-linecap="butt" transform="matrix(0.75, 0, 0, 0.75, -143.229161, -143.229143)" fill="none" stroke-linejoin="miter" d="M 930.789908 990.961759 C 930.841992 990.883634 930.914908 990.847176 931.00345 990.847176 C 931.0972 990.847176 931.164908 990.883634 931.216992 990.961759 C 951.102408 1017.430509 971.008658 1043.914884 990.946158 1070.420092 C 992.826366 1072.909675 994.414908 1075.795091 997.357616 1076.946133 C 1001.821157 1078.670091 1007.748241 1076.045091 1007.737824 1070.805508 C 1007.727407 1038.7378 1007.748241 1005.123218 1007.789907 969.966968 C 1007.789907 960.144052 992.560741 960.722177 992.560741 970.284676 C 992.571158 997.315926 992.560741 1023.175301 992.534699 1047.868009 C 992.534699 1049.555509 992.029491 1049.722175 991.013866 1048.368009 C 972.12845 1023.295092 951.62845 996.034676 929.519075 966.581551 C 924.404492 959.769052 915.107617 962.727385 915.107617 971.128426 C 915.0972 1006.909676 915.107617 1039.472175 915.133659 1068.805508 C 915.133659 1073.909675 917.4722 1076.795091 922.154492 1077.466966 C 926.19095 1078.0503 930.4722 1074.748216 930.4722 1070.446133 C 930.498242 1044.993009 930.508658 1018.789884 930.498242 991.831551 C 930.498242 991.508634 930.5972 991.216968 930.789908 990.961759 " stroke="#89d9e7" stroke-width="2" stroke-opacity="1" stroke-miterlimit="4"/><path stroke-linecap="butt" transform="matrix(0.75, 0, 0, 0.75, -143.229161, -143.229143)" fill="none" stroke-linejoin="miter" d="M 1104.529489 1053.341967 C 1107.060739 1059.8003 1109.670114 1066.26905 1112.347197 1072.758633 C 1116.190947 1082.029466 1130.852405 1077.315925 1125.894072 1065.404467 C 1112.701364 1033.7378 1098.940948 1000.930509 1084.612823 966.966968 C 1082.414906 961.74301 1074.347198 961.39926 1071.581573 966.196135 C 1070.550323 967.96176 1069.638865 969.810718 1068.847198 971.737801 C 1056.21699 1002.472176 1043.159698 1033.685717 1029.680532 1065.378425 C 1024.74824 1076.9878 1039.451365 1082.774258 1043.87324 1071.3628 C 1046.315948 1065.065925 1048.821157 1058.961758 1051.394073 1053.034675 C 1051.597198 1052.586758 1051.940948 1052.357592 1052.430532 1052.357592 L 1103.076364 1052.347175 C 1103.399281 1052.347175 1103.690948 1052.435717 1103.956573 1052.618008 C 1104.222198 1052.8003 1104.409697 1053.039883 1104.529489 1053.341967 " stroke="#89d9e7" stroke-width="2" stroke-opacity="1" stroke-miterlimit="4"/><path stroke-linecap="butt" transform="matrix(0.75, 0, 0, 0.75, -143.229161, -143.229143)" fill="none" stroke-linejoin="miter" d="M 443.091999 1038.607592 C 443.045124 1038.732592 443.024291 1038.857592 443.039916 1038.9878 C 443.055541 1039.118009 443.097208 1039.2378 443.170124 1039.347175 C 443.243041 1039.45655 443.336791 1039.539884 443.456583 1039.602384 C 443.571166 1039.664884 443.690958 1039.696134 443.821166 1039.701342 L 483.716999 1039.784675 C 483.852415 1039.784675 483.977415 1039.753425 484.097207 1039.690925 C 484.216999 1039.628425 484.315957 1039.539884 484.388874 1039.430509 C 484.46179 1039.321134 484.508665 1039.196134 484.519082 1039.065925 C 484.534707 1038.930509 484.519082 1038.8003 484.466999 1038.680509 L 464.607624 989.466968 C 464.477416 989.128426 464.232624 988.956551 463.868041 988.951343 C 463.503457 988.946134 463.253457 989.112801 463.112832 989.451343 L 443.091999 1038.607592 " stroke="#89d9e7" stroke-width="2" stroke-opacity="1" stroke-miterlimit="4"/><path stroke-linecap="butt" transform="matrix(0.75, 0, 0, 0.75, -143.229161, -143.229143)" fill="none" stroke-linejoin="miter" d="M 834.440952 977.404468 L 834.222202 1018.696134 C 834.222202 1018.826342 834.269077 1018.940926 834.362827 1019.039884 C 834.456577 1019.133634 834.57116 1019.180509 834.706577 1019.180509 L 853.649285 1019.274259 C 854.373243 1019.279467 855.097201 1019.248217 855.815951 1019.185717 C 856.534701 1019.123217 857.248243 1019.029467 857.961785 1018.899259 C 858.670118 1018.769051 859.373243 1018.607592 860.065951 1018.414884 C 860.75866 1018.222176 861.440951 1017.998217 862.107618 1017.737801 C 862.779493 1017.482592 863.430535 1017.196134 864.07116 1016.878426 C 864.711784 1016.560717 865.331576 1016.216967 865.935743 1015.841967 C 866.539909 1015.466967 867.123243 1015.060717 867.680534 1014.633634 C 868.243034 1014.206551 868.779493 1013.753426 869.295118 1013.274259 C 869.810743 1012.795092 870.295118 1012.295092 870.758659 1011.769051 C 871.222201 1011.248217 871.654493 1010.701342 872.060743 1010.138842 C 872.461784 1009.576342 872.836784 1008.993009 873.180534 1008.399259 C 873.524284 1007.800301 873.836784 1007.185718 874.118034 1006.560718 C 874.399284 1005.930509 874.644076 1005.295093 874.857618 1004.644051 C 875.071159 1003.993009 875.253451 1003.331551 875.399284 1002.664884 C 875.539909 1001.998218 875.649284 1001.326343 875.727409 1000.649259 C 875.800326 999.977384 875.841993 999.295093 875.841993 998.618009 L 875.841993 997.925301 C 875.847201 997.243009 875.815951 996.565926 875.748243 995.888843 C 875.680534 995.211759 875.576368 994.534676 875.440951 993.868009 C 875.300326 993.201343 875.128451 992.539884 874.925326 991.888843 C 874.716993 991.237801 874.477409 990.591968 874.201368 989.961759 C 873.930534 989.331551 873.623243 988.716968 873.284701 988.118009 C 872.951368 987.513843 872.581576 986.930509 872.180534 986.362801 C 871.784701 985.795093 871.357618 985.24301 870.899284 984.716968 C 870.440951 984.185718 869.961784 983.68051 869.451368 983.196135 C 868.940951 982.71176 868.409701 982.253426 867.852409 981.821135 C 867.295118 981.383635 866.716993 980.977385 866.118034 980.597176 C 865.519076 980.216968 864.904493 979.862801 864.269076 979.539885 C 863.628451 979.21176 862.97741 978.920093 862.310743 978.654468 C 861.644076 978.394051 860.966993 978.159676 860.274285 977.956551 C 859.586785 977.758635 858.88366 977.58676 858.175326 977.451343 C 857.466993 977.315926 856.753451 977.21176 856.034701 977.138843 C 855.315951 977.071135 854.597201 977.034676 853.873243 977.029468 L 834.925327 976.920093 C 834.78991 976.920093 834.675327 976.966968 834.581577 977.060718 C 834.487827 977.154468 834.440952 977.269051 834.440952 977.404468 " stroke="#89d9e7" stroke-width="2" stroke-opacity="1" stroke-miterlimit="4"/><path stroke-linecap="butt" transform="matrix(0.75, 0, 0, 0.75, -143.229161, -143.229143)" fill="none" stroke-linejoin="miter" d="M 1057.15449 1038.664884 C 1057.107615 1038.779467 1057.086782 1038.904467 1057.102407 1039.029467 C 1057.112823 1039.154467 1057.15449 1039.274259 1057.227407 1039.378425 C 1057.295115 1039.482592 1057.388865 1039.565925 1057.49824 1039.623217 C 1057.612823 1039.685717 1057.732615 1039.716967 1057.857615 1039.716967 L 1097.935739 1039.784675 C 1098.060739 1039.784675 1098.180531 1039.753425 1098.289906 1039.696134 C 1098.399281 1039.633634 1098.487823 1039.555509 1098.560739 1039.451342 C 1098.633656 1039.347175 1098.675323 1039.232592 1098.685739 1039.107592 C 1098.701364 1038.982592 1098.685739 1038.8628 1098.638864 1038.748217 L 1078.68574 989.425301 C 1078.555531 989.107593 1078.321156 988.951343 1077.982615 988.951343 C 1077.638865 988.951343 1077.40449 989.107593 1077.274281 989.425301 L 1057.15449 1038.664884 " stroke="#89d9e7" stroke-width="2" stroke-opacity="1" stroke-miterlimit="4"/><path fill="#111013" d="M 699.367188 21.410156 C 673.757812 47.296875 647.289062 72.253906 619.953125 96.285156 C 526.652344 178.316406 425.332031 247.398438 315.992188 303.535156 C 279.058594 322.496094 244.167969 338.734375 211.320312 352.257812 C 183.191406 363.832031 157.421875 373.757812 134.011719 382.035156 C 98.199219 394.6875 60.671875 406.175781 21.433594 416.507812 C 21.4375 297.964844 21.4375 179.660156 21.433594 61.59375 C 21.433594 54.195312 24.738281 45.324219 29.183594 39.164062 C 35.121094 30.957031 43.042969 25.488281 52.949219 22.757812 C 56.21875 21.859375 62.421875 21.410156 71.554688 21.410156 C 280.828125 21.417969 490.097656 21.417969 699.367188 21.410156 Z M 699.367188 21.410156 " fill-opacity="1" fill-rule="nonzero"/><path fill="#ffffff" d="M 699.367188 21.410156 L 727.683594 21.464844 C 727.910156 21.464844 728.105469 21.542969 728.269531 21.707031 C 728.429688 21.867188 728.511719 22.0625 728.511719 22.292969 L 728.511719 152.355469 C 727.632812 152.453125 727.066406 152.988281 726.8125 153.964844 C 693.367188 278.628906 644.058594 396.589844 578.878906 507.851562 C 578.644531 508.25 578.296875 508.449219 577.832031 508.449219 L 532.808594 508.449219 C 532.367188 508.449219 532.269531 508.269531 532.515625 507.914062 C 541.097656 495.703125 549.796875 482.769531 558.617188 469.105469 C 620.152344 373.808594 669.246094 273.238281 705.894531 167.394531 C 711.957031 149.902344 717.503906 132.125 722.945312 114.308594 C 724.078125 110.585938 725.652344 105.085938 727.671875 97.820312 C 727.699219 97.714844 727.660156 97.644531 727.558594 97.613281 L 727.234375 97.507812 C 727.050781 97.445312 726.921875 97.503906 726.851562 97.683594 C 683.21875 205.988281 627.195312 307.265625 558.78125 401.519531 C 554.78125 407.027344 550.664062 412.582031 546.425781 418.1875 C 522.863281 449.308594 498.203125 479.246094 472.445312 508.003906 C 472.183594 508.300781 471.851562 508.449219 471.449219 508.449219 C 450.363281 508.449219 429.042969 508.449219 407.488281 508.449219 C 407.28125 508.449219 407.109375 508.371094 406.972656 508.210938 C 406.933594 508.164062 406.933594 508.117188 406.980469 508.066406 C 505.148438 414.523438 588.542969 310.027344 657.160156 194.570312 C 660.546875 188.871094 664.011719 182.894531 667.558594 176.640625 C 684.277344 147.164062 700.171875 116.644531 715.234375 85.082031 C 719.84375 75.429688 723.949219 66.289062 727.558594 57.667969 C 727.597656 57.5625 727.570312 57.488281 727.472656 57.4375 L 727.226562 57.3125 C 727.066406 57.238281 726.9375 57.277344 726.84375 57.429688 C 713.898438 79.738281 705.21875 94.5 700.796875 101.707031 C 603.253906 260.59375 477.441406 399.25 326.480469 507.644531 C 325.742188 508.175781 324.914062 508.441406 323.992188 508.441406 L 234.390625 508.460938 C 234.324219 508.460938 234.269531 508.4375 234.226562 508.390625 C 234.15625 508.304688 234.121094 508.21875 234.121094 508.128906 C 234.117188 507.894531 234.222656 507.730469 234.445312 507.632812 C 235.347656 507.21875 236.21875 506.757812 237.054688 506.253906 C 341.730469 443.304688 436.90625 369.144531 522.578125 283.769531 C 592.382812 214.203125 653.699219 138.324219 706.796875 56.058594 C 713.355469 45.902344 719.46875 35.988281 725.140625 26.3125 C 725.199219 26.21875 725.179688 26.136719 725.089844 26.074219 L 725.082031 26.066406 C 724.960938 25.988281 724.859375 26.007812 724.769531 26.117188 C 699.625 59.355469 673.0625 92.035156 645.824219 121.636719 C 634.308594 134.144531 622.75 146.761719 610.644531 158.898438 C 600.03125 169.542969 589.949219 179.707031 579.15625 189.835938 C 571.9375 196.613281 564.296875 203.695312 556.242188 211.082031 C 536.375 229.289062 513.636719 248.515625 488.023438 268.761719 C 420.640625 321.992188 349.953125 367.835938 275.964844 406.289062 C 247.578125 421.039062 222.289062 433.320312 200.097656 443.132812 C 184.609375 449.984375 169.273438 456.699219 153.664062 462.816406 C 145.261719 466.105469 136.835938 469.375 128.382812 472.632812 C 93.324219 486.148438 57.671875 498.121094 21.421875 508.554688 L 21.433594 416.507812 C 60.671875 406.175781 98.199219 394.6875 134.011719 382.035156 C 157.421875 373.757812 183.191406 363.832031 211.320312 352.257812 C 244.167969 338.734375 279.058594 322.496094 315.992188 303.535156 C 425.332031 247.398438 526.652344 178.316406 619.953125 96.285156 C 647.289062 72.253906 673.757812 47.296875 699.367188 21.410156 Z M 699.367188 21.410156 " fill-opacity="1" fill-rule="nonzero"/><path fill="#111013" d="M 728.511719 152.355469 L 728.542969 154.460938 C 728.210938 154.296875 728.035156 154.304688 728.011719 154.492188 C 725.574219 175.171875 722.871094 195.34375 719.910156 215 C 718.835938 222.074219 717.726562 228.902344 716.570312 235.480469 C 700.152344 328.988281 673.988281 419.730469 638.070312 507.703125 C 638.039062 507.789062 638.027344 507.875 638.035156 507.960938 C 638.042969 508.050781 638.074219 508.132812 638.121094 508.207031 C 638.171875 508.277344 638.234375 508.335938 638.308594 508.378906 C 638.386719 508.421875 638.46875 508.441406 638.558594 508.441406 L 666.800781 508.460938 C 667 508.460938 667.179688 508.402344 667.339844 508.285156 C 667.503906 508.164062 667.613281 508.011719 667.671875 507.820312 C 696.851562 412.328125 716.335938 314.851562 726.128906 215.394531 C 726.707031 209.527344 727.480469 203.652344 728.449219 197.765625 C 728.503906 201.945312 728.53125 206.089844 728.53125 210.203125 C 728.574219 363.480469 728.585938 519.074219 728.574219 676.988281 C 728.574219 686.757812 728.144531 693.265625 727.289062 696.503906 C 723.152344 712.226562 710.972656 724.355469 695.035156 727.660156 C 691.773438 728.339844 686.941406 728.675781 680.542969 728.675781 C 465.578125 728.59375 262.835938 728.59375 72.320312 728.675781 C 63.113281 728.683594 56.699219 728.210938 53.085938 727.257812 C 38.273438 723.339844 27.175781 712.320312 22.832031 697.53125 C 21.882812 694.324219 21.414062 688.59375 21.421875 680.335938 C 21.441406 622.828125 21.441406 565.566406 21.421875 508.554688 C 57.671875 498.121094 93.324219 486.148438 128.382812 472.632812 C 136.835938 469.375 145.261719 466.105469 153.664062 462.816406 C 169.273438 456.699219 184.609375 449.984375 200.097656 443.132812 C 222.289062 433.320312 247.578125 421.039062 275.964844 406.289062 C 349.953125 367.835938 420.640625 321.992188 488.023438 268.761719 C 513.636719 248.515625 536.375 229.289062 556.242188 211.082031 C 564.296875 203.695312 571.9375 196.613281 579.15625 189.835938 C 589.949219 179.707031 600.03125 169.542969 610.644531 158.898438 C 622.75 146.761719 634.308594 134.144531 645.824219 121.636719 C 673.0625 92.035156 699.625 59.355469 724.769531 26.117188 C 724.859375 26.007812 724.960938 25.988281 725.082031 26.066406 L 725.089844 26.074219 C 725.179688 26.136719 725.199219 26.21875 725.140625 26.3125 C 719.46875 35.988281 713.355469 45.902344 706.796875 56.058594 C 653.699219 138.324219 592.382812 214.203125 522.578125 283.769531 C 436.90625 369.144531 341.730469 443.304688 237.054688 506.253906 C 236.21875 506.757812 235.347656 507.21875 234.445312 507.632812 C 234.222656 507.730469 234.117188 507.894531 234.121094 508.128906 C 234.121094 508.21875 234.15625 508.304688 234.226562 508.390625 C 234.269531 508.4375 234.324219 508.460938 234.390625 508.460938 L 323.992188 508.441406 C 324.914062 508.441406 325.742188 508.175781 326.480469 507.644531 C 477.441406 399.25 603.253906 260.59375 700.796875 101.707031 C 705.21875 94.5 713.898438 79.738281 726.84375 57.429688 C 726.9375 57.277344 727.066406 57.238281 727.226562 57.3125 L 727.472656 57.4375 C 727.570312 57.488281 727.597656 57.5625 727.558594 57.667969 C 723.949219 66.289062 719.84375 75.429688 715.234375 85.082031 C 700.171875 116.644531 684.277344 147.164062 667.558594 176.640625 C 664.011719 182.894531 660.546875 188.871094 657.160156 194.570312 C 588.542969 310.027344 505.148438 414.523438 406.980469 508.066406 C 406.933594 508.117188 406.933594 508.164062 406.972656 508.210938 C 407.109375 508.371094 407.28125 508.449219 407.488281 508.449219 C 429.042969 508.449219 450.363281 508.449219 471.449219 508.449219 C 471.851562 508.449219 472.183594 508.300781 472.445312 508.003906 C 498.203125 479.246094 522.863281 449.308594 546.425781 418.1875 C 550.664062 412.582031 554.78125 407.027344 558.78125 401.519531 C 627.195312 307.265625 683.21875 205.988281 726.851562 97.683594 C 726.921875 97.503906 727.050781 97.445312 727.234375 97.507812 L 727.558594 97.613281 C 727.660156 97.644531 727.699219 97.714844 727.671875 97.820312 C 725.652344 105.085938 724.078125 110.585938 722.945312 114.308594 C 717.503906 132.125 711.957031 149.902344 705.894531 167.394531 C 669.246094 273.238281 620.152344 373.808594 558.617188 469.105469 C 549.796875 482.769531 541.097656 495.703125 532.515625 507.914062 C 532.269531 508.269531 532.367188 508.449219 532.808594 508.449219 L 577.832031 508.449219 C 578.296875 508.449219 578.644531 508.25 578.878906 507.851562 C 644.058594 396.589844 693.367188 278.628906 726.8125 153.964844 C 727.066406 152.988281 727.632812 152.453125 728.511719 152.355469 Z M 86.355469 647.78125 C 86.011719 648.003906 85.757812 647.921875 85.597656 647.542969 C 76.976562 626.835938 68.4375 606.335938 59.988281 586.050781 C 58.089844 581.5 57.367188 578.277344 52.121094 579.003906 C 44.398438 580.070312 49.550781 589.460938 51.28125 593.429688 C 61.328125 616.46875 71.101562 638.800781 80.601562 660.425781 C 81.515625 662.492188 82.367188 663.703125 83.164062 664.0625 C 87.074219 665.847656 89.855469 664.839844 91.507812 661.039062 C 102.140625 636.578125 113.042969 611.546875 124.21875 585.945312 C 127.203125 579.117188 116.796875 576.121094 114.308594 582.039062 C 105.445312 603.058594 96.472656 624.148438 87.390625 645.304688 C 87.199219 645.765625 87.066406 646.246094 87 646.746094 C 86.9375 647.199219 86.722656 647.546875 86.355469 647.78125 Z M 151.890625 584.195312 C 151.890625 583.851562 151.855469 583.507812 151.789062 583.171875 C 151.722656 582.832031 151.621094 582.503906 151.492188 582.183594 C 151.359375 581.867188 151.195312 581.5625 151.003906 581.277344 C 150.8125 580.988281 150.59375 580.722656 150.351562 580.480469 C 150.109375 580.234375 149.84375 580.015625 149.554688 579.824219 C 149.269531 579.632812 148.964844 579.472656 148.648438 579.339844 C 148.328125 579.207031 148 579.109375 147.660156 579.042969 C 147.324219 578.972656 146.980469 578.941406 146.636719 578.941406 L 145.785156 578.941406 C 145.441406 578.941406 145.097656 578.972656 144.761719 579.042969 C 144.421875 579.109375 144.09375 579.207031 143.773438 579.339844 C 143.457031 579.472656 143.152344 579.632812 142.867188 579.824219 C 142.578125 580.019531 142.3125 580.234375 142.070312 580.480469 C 141.824219 580.722656 141.609375 580.988281 141.417969 581.277344 C 141.226562 581.5625 141.0625 581.867188 140.929688 582.183594 C 140.800781 582.503906 140.699219 582.832031 140.632812 583.171875 C 140.566406 583.507812 140.53125 583.851562 140.53125 584.195312 L 140.53125 659.628906 C 140.53125 659.972656 140.566406 660.316406 140.632812 660.652344 C 140.699219 660.992188 140.800781 661.320312 140.929688 661.640625 C 141.0625 661.957031 141.226562 662.261719 141.417969 662.546875 C 141.609375 662.835938 141.824219 663.101562 142.070312 663.34375 C 142.3125 663.585938 142.578125 663.804688 142.867188 663.996094 C 143.152344 664.1875 143.457031 664.351562 143.773438 664.484375 C 144.09375 664.613281 144.421875 664.714844 144.761719 664.78125 C 145.097656 664.847656 145.441406 664.882812 145.785156 664.882812 L 146.636719 664.882812 C 146.980469 664.882812 147.324219 664.847656 147.660156 664.78125 C 148 664.714844 148.328125 664.613281 148.648438 664.484375 C 148.964844 664.351562 149.269531 664.1875 149.554688 663.996094 C 149.84375 663.804688 150.109375 663.585938 150.351562 663.34375 C 150.59375 663.101562 150.8125 662.835938 151.003906 662.546875 C 151.195312 662.261719 151.359375 661.957031 151.492188 661.640625 C 151.621094 661.320312 151.722656 660.992188 151.789062 660.652344 C 151.855469 660.316406 151.890625 659.972656 151.890625 659.628906 Z M 190.769531 602.757812 C 183.382812 620.175781 176.019531 637.761719 168.679688 655.511719 C 167.894531 657.421875 167.09375 658.683594 167.832031 660.769531 C 169.6875 665.949219 176.589844 666.488281 178.652344 661.308594 C 180.515625 656.628906 182.554688 651.664062 184.765625 646.414062 C 184.878906 646.164062 185.066406 646.039062 185.335938 646.039062 L 223.136719 646.03125 C 223.484375 646.03125 223.800781 646.125 224.085938 646.320312 C 224.375 646.511719 224.582031 646.765625 224.710938 647.085938 C 226.464844 651.476562 228.253906 655.988281 230.070312 660.632812 C 231.574219 664.457031 235.6875 666.3125 239.253906 663.816406 C 242.394531 661.617188 241.78125 658.382812 240.433594 655.210938 C 230.113281 630.871094 219.9375 606.65625 209.910156 582.566406 C 207.808594 577.519531 201.351562 577.757812 199.257812 582.464844 C 196.269531 589.179688 193.628906 596 190.769531 602.757812 Z M 268.191406 652.683594 C 268.183594 631.105469 268.191406 609.203125 268.210938 586.972656 C 268.210938 584.421875 268.109375 581.085938 265.546875 579.726562 C 261.929688 577.820312 256.871094 579.53125 256.863281 584.121094 C 256.792969 608.753906 256.769531 633.867188 256.789062 659.460938 C 256.789062 659.820312 256.824219 660.175781 256.894531 660.53125 C 256.964844 660.882812 257.070312 661.222656 257.207031 661.554688 C 257.34375 661.886719 257.511719 662.203125 257.710938 662.503906 C 257.910156 662.800781 258.140625 663.078125 258.394531 663.332031 C 258.648438 663.585938 258.921875 663.8125 259.222656 664.011719 C 259.519531 664.210938 259.835938 664.378906 260.167969 664.519531 C 260.5 664.65625 260.84375 664.757812 261.195312 664.828125 C 261.546875 664.898438 261.902344 664.933594 262.261719 664.933594 C 278.445312 664.941406 293.609375 664.945312 307.753906 664.945312 C 315.753906 664.945312 315.773438 653.378906 307.730469 653.335938 C 295.019531 653.28125 282.054688 653.28125 268.84375 653.335938 C 268.410156 653.335938 268.191406 653.121094 268.191406 652.683594 Z M 347.695312 589.441406 C 355.367188 589.578125 363.015625 589.589844 370.644531 589.46875 C 377.960938 589.355469 377.691406 578.960938 370.769531 578.949219 C 350.089844 578.921875 330.488281 578.921875 311.96875 578.949219 C 304.496094 578.960938 304.550781 589.417969 311.515625 589.492188 C 318.992188 589.566406 326.710938 589.574219 334.667969 589.511719 C 334.867188 589.507812 335.035156 589.578125 335.175781 589.714844 C 335.3125 589.851562 335.382812 590.019531 335.382812 590.21875 C 335.507812 613.480469 335.570312 636.769531 335.570312 660.085938 C 335.570312 660.773438 335.773438 661.445312 336.183594 662.09375 C 339.15625 666.800781 347.035156 665.214844 347.023438 659.398438 C 346.96875 634.476562 346.953125 611.394531 346.980469 590.15625 C 346.980469 589.671875 347.21875 589.433594 347.695312 589.441406 Z M 402.710938 653.542969 L 402.703125 627.332031 C 402.703125 627.199219 402.75 627.082031 402.847656 626.988281 C 402.945312 626.894531 403.0625 626.84375 403.199219 626.84375 C 413.410156 626.769531 423.785156 626.761719 434.3125 626.824219 C 435.445312 626.839844 436.492188 626.59375 437.453125 626.089844 C 440.894531 624.285156 440.769531 618.761719 437.496094 616.945312 C 436.582031 616.441406 434.957031 616.1875 432.613281 616.179688 C 421.882812 616.152344 412.226562 616.144531 403.644531 616.160156 C 403.03125 616.160156 402.722656 615.851562 402.722656 615.238281 L 402.710938 589.8125 C 402.714844 589.652344 402.773438 589.519531 402.898438 589.414062 C 403.019531 589.308594 403.15625 589.269531 403.3125 589.292969 C 404.425781 589.480469 405.597656 589.574219 406.828125 589.574219 C 418.917969 589.546875 431.945312 589.542969 445.902344 589.5625 C 449.859375 589.574219 452.84375 588.0625 452.191406 583.324219 C 451.796875 580.457031 450.113281 579.011719 447.132812 578.992188 C 432.742188 578.875 416.132812 578.859375 397.3125 578.949219 C 393.207031 578.972656 391.167969 581.183594 391.195312 585.582031 C 391.34375 609.261719 391.308594 632.335938 391.09375 654.796875 C 391.050781 659.804688 391.15625 664.902344 397.28125 664.914062 C 413.277344 664.960938 429.753906 664.964844 446.710938 664.925781 C 454.039062 664.902344 454.691406 654.332031 446.480469 654.320312 C 431.847656 654.308594 417.523438 654.316406 403.511719 654.34375 C 402.976562 654.34375 402.710938 654.078125 402.710938 653.542969 Z M 483.265625 631.769531 L 497.558594 631.769531 C 497.859375 631.769531 498.136719 631.839844 498.398438 631.988281 C 498.660156 632.132812 498.871094 632.332031 499.03125 632.585938 C 505.179688 642.488281 511.1875 652.191406 517.054688 661.691406 C 518.679688 664.34375 521.066406 665.496094 524.214844 664.707031 C 526.796875 664.0625 528.101562 661.640625 527.914062 659.140625 C 527.832031 658.050781 527.183594 656.527344 525.96875 654.570312 C 520.917969 646.417969 515.792969 638.179688 510.597656 629.859375 C 510.292969 629.371094 510.394531 628.992188 510.898438 628.722656 C 520.839844 623.375 525.402344 614.910156 524.578125 603.328125 C 523.582031 589.253906 512.429688 579.386719 498.761719 579.054688 C 492.453125 578.902344 485.191406 578.875 476.984375 578.972656 C 472.992188 579.011719 470.988281 581.082031 470.984375 585.179688 C 470.941406 608.175781 470.925781 632.734375 470.929688 658.859375 C 470.941406 666.902344 482.550781 666.695312 482.550781 659.390625 C 482.535156 648.894531 482.53125 639.9375 482.53125 632.515625 C 482.53125 632.015625 482.773438 631.769531 483.265625 631.769531 Z M 554.863281 599.992188 C 554.902344 599.933594 554.957031 599.90625 555.023438 599.90625 C 555.09375 599.90625 555.144531 599.933594 555.183594 599.992188 C 570.097656 619.84375 585.027344 639.707031 599.980469 659.585938 C 601.390625 661.453125 602.582031 663.617188 604.789062 664.480469 C 608.136719 665.773438 612.582031 663.804688 612.574219 659.875 C 612.566406 635.824219 612.582031 610.613281 612.613281 584.246094 C 612.613281 576.878906 601.191406 577.3125 601.191406 584.484375 C 601.199219 604.757812 601.191406 624.152344 601.171875 642.671875 C 601.171875 643.9375 600.792969 644.0625 600.03125 643.046875 C 585.867188 624.242188 570.492188 603.796875 553.910156 581.707031 C 550.074219 576.597656 543.101562 578.816406 543.101562 585.117188 C 543.09375 611.953125 543.101562 636.375 543.121094 658.375 C 543.121094 662.203125 544.875 664.367188 548.386719 664.871094 C 551.410156 665.308594 554.625 662.832031 554.625 659.609375 C 554.644531 640.515625 554.652344 620.863281 554.644531 600.644531 C 554.644531 600.402344 554.71875 600.183594 554.863281 599.992188 Z M 685.167969 646.777344 C 687.066406 651.621094 689.023438 656.472656 691.03125 661.339844 C 693.914062 668.292969 704.910156 664.757812 701.191406 655.824219 C 691.296875 632.074219 680.976562 607.46875 670.230469 581.996094 C 668.582031 578.078125 662.53125 577.820312 660.457031 581.417969 C 659.683594 582.742188 659 584.128906 658.40625 585.574219 C 648.933594 608.625 639.140625 632.035156 629.03125 655.804688 C 625.332031 664.511719 636.359375 668.851562 639.675781 660.292969 C 641.507812 655.570312 643.386719 650.992188 645.316406 646.546875 C 645.464844 646.210938 645.726562 646.039062 646.09375 646.039062 L 684.078125 646.03125 C 684.320312 646.03125 684.539062 646.097656 684.738281 646.234375 C 684.9375 646.371094 685.078125 646.550781 685.167969 646.777344 Z M 685.167969 646.777344 " fill-opacity="1" fill-rule="nonzero"/><path fill="#ffffff" d="M 728.542969 154.460938 L 728.449219 197.765625 C 727.480469 203.652344 726.707031 209.527344 726.128906 215.394531 C 716.335938 314.851562 696.851562 412.328125 667.671875 507.820312 C 667.613281 508.011719 667.503906 508.164062 667.339844 508.285156 C 667.179688 508.402344 667 508.460938 666.800781 508.460938 L 638.558594 508.441406 C 638.46875 508.441406 638.386719 508.421875 638.308594 508.378906 C 638.234375 508.335938 638.171875 508.277344 638.121094 508.207031 C 638.074219 508.132812 638.042969 508.050781 638.035156 507.960938 C 638.027344 507.875 638.039062 507.789062 638.070312 507.703125 C 673.988281 419.730469 700.152344 328.988281 716.570312 235.480469 C 717.726562 228.902344 718.835938 222.074219 719.910156 215 C 722.871094 195.34375 725.574219 175.171875 728.011719 154.492188 C 728.035156 154.304688 728.210938 154.296875 728.542969 154.460938 Z M 728.542969 154.460938 " fill-opacity="1" fill-rule="nonzero"/><path fill="#ffffff" d="M 86.355469 647.78125 C 86.722656 647.546875 86.9375 647.199219 87 646.746094 C 87.066406 646.246094 87.199219 645.765625 87.390625 645.304688 C 96.472656 624.148438 105.445312 603.058594 114.308594 582.039062 C 116.796875 576.121094 127.203125 579.117188 124.21875 585.945312 C 113.042969 611.546875 102.140625 636.578125 91.507812 661.039062 C 89.855469 664.839844 87.074219 665.847656 83.164062 664.0625 C 82.367188 663.703125 81.515625 662.492188 80.601562 660.425781 C 71.101562 638.800781 61.328125 616.46875 51.28125 593.429688 C 49.550781 589.460938 44.398438 580.070312 52.121094 579.003906 C 57.367188 578.277344 58.089844 581.5 59.988281 586.050781 C 68.4375 606.335938 76.976562 626.835938 85.597656 647.542969 C 85.757812 647.921875 86.011719 648.003906 86.355469 647.78125 Z M 86.355469 647.78125 " fill-opacity="1" fill-rule="nonzero"/><path fill="#ffffff" d="M 145.785156 578.941406 L 146.636719 578.941406 C 146.980469 578.941406 147.324219 578.972656 147.660156 579.042969 C 148 579.109375 148.328125 579.207031 148.648438 579.339844 C 148.964844 579.472656 149.269531 579.632812 149.554688 579.824219 C 149.84375 580.015625 150.105469 580.234375 150.351562 580.480469 C 150.59375 580.722656 150.8125 580.988281 151.003906 581.277344 C 151.195312 581.5625 151.359375 581.867188 151.492188 582.183594 C 151.621094 582.503906 151.722656 582.832031 151.789062 583.171875 C 151.855469 583.507812 151.890625 583.851562 151.890625 584.195312 L 151.890625 659.628906 C 151.890625 659.972656 151.855469 660.316406 151.789062 660.652344 C 151.722656 660.992188 151.621094 661.320312 151.492188 661.640625 C 151.359375 661.957031 151.195312 662.261719 151.003906 662.546875 C 150.8125 662.835938 150.59375 663.101562 150.351562 663.34375 C 150.105469 663.585938 149.84375 663.804688 149.554688 663.996094 C 149.269531 664.1875 148.964844 664.351562 148.648438 664.484375 C 148.328125 664.613281 148 664.714844 147.660156 664.78125 C 147.324219 664.847656 146.980469 664.882812 146.636719 664.882812 L 145.785156 664.882812 C 145.441406 664.882812 145.097656 664.847656 144.761719 664.78125 C 144.421875 664.714844 144.09375 664.613281 143.773438 664.484375 C 143.457031 664.351562 143.152344 664.1875 142.867188 663.996094 C 142.578125 663.804688 142.3125 663.585938 142.070312 663.34375 C 141.824219 663.101562 141.609375 662.835938 141.417969 662.546875 C 141.226562 662.261719 141.0625 661.957031 140.929688 661.640625 C 140.800781 661.320312 140.699219 660.992188 140.632812 660.652344 C 140.566406 660.316406 140.53125 659.972656 140.53125 659.628906 L 140.53125 584.195312 C 140.53125 583.851562 140.566406 583.507812 140.632812 583.171875 C 140.699219 582.832031 140.800781 582.503906 140.929688 582.183594 C 141.0625 581.867188 141.226562 581.5625 141.417969 581.277344 C 141.609375 580.988281 141.824219 580.722656 142.070312 580.480469 C 142.3125 580.234375 142.578125 580.015625 142.867188 579.824219 C 143.152344 579.632812 143.457031 579.472656 143.773438 579.339844 C 144.09375 579.207031 144.421875 579.109375 144.761719 579.042969 C 145.097656 578.972656 145.441406 578.941406 145.785156 578.941406 Z M 145.785156 578.941406 " fill-opacity="1" fill-rule="nonzero"/><path fill="#ffffff" d="M 190.769531 602.757812 C 193.628906 596 196.269531 589.179688 199.257812 582.464844 C 201.351562 577.757812 207.808594 577.519531 209.910156 582.566406 C 219.9375 606.65625 230.113281 630.871094 240.433594 655.210938 C 241.78125 658.382812 242.394531 661.617188 239.253906 663.816406 C 235.6875 666.3125 231.574219 664.457031 230.070312 660.632812 C 228.253906 655.988281 226.464844 651.476562 224.710938 647.085938 C 224.582031 646.765625 224.375 646.511719 224.085938 646.320312 C 223.800781 646.125 223.484375 646.03125 223.136719 646.03125 L 185.335938 646.039062 C 185.066406 646.039062 184.878906 646.164062 184.765625 646.414062 C 182.554688 651.664062 180.515625 656.628906 178.652344 661.308594 C 176.589844 666.488281 169.6875 665.949219 167.832031 660.769531 C 167.09375 658.683594 167.894531 657.421875 168.679688 655.511719 C 176.019531 637.761719 183.382812 620.175781 190.769531 602.757812 Z M 189.089844 635.726562 C 189.054688 635.820312 189.039062 635.914062 189.050781 636.011719 C 189.0625 636.109375 189.09375 636.199219 189.148438 636.28125 C 189.203125 636.363281 189.273438 636.425781 189.363281 636.472656 C 189.449219 636.519531 189.539062 636.542969 189.636719 636.546875 L 219.558594 636.609375 C 219.660156 636.609375 219.753906 636.585938 219.84375 636.539062 C 219.933594 636.492188 220.007812 636.425781 220.0625 636.34375 C 220.117188 636.261719 220.152344 636.167969 220.160156 636.070312 C 220.171875 635.96875 220.160156 635.871094 220.121094 635.78125 L 205.226562 598.871094 C 205.128906 598.617188 204.945312 598.488281 204.671875 598.484375 C 204.398438 598.480469 204.210938 598.605469 204.105469 598.859375 Z M 189.089844 635.726562 " fill-opacity="1" fill-rule="nonzero"/><path fill="#ffffff" d="M 268.84375 653.335938 C 282.054688 653.28125 295.019531 653.28125 307.730469 653.335938 C 315.773438 653.378906 315.753906 664.945312 307.753906 664.945312 C 293.609375 664.945312 278.445312 664.941406 262.261719 664.933594 C 261.902344 664.933594 261.546875 664.898438 261.195312 664.828125 C 260.84375 664.757812 260.5 664.65625 260.167969 664.519531 C 259.835938 664.378906 259.519531 664.210938 259.222656 664.011719 C 258.921875 663.8125 258.648438 663.585938 258.394531 663.332031 C 258.140625 663.078125 257.910156 662.800781 257.710938 662.503906 C 257.511719 662.203125 257.34375 661.886719 257.207031 661.554688 C 257.070312 661.222656 256.964844 660.882812 256.894531 660.53125 C 256.824219 660.175781 256.789062 659.820312 256.789062 659.460938 C 256.769531 633.867188 256.792969 608.753906 256.863281 584.121094 C 256.871094 579.53125 261.929688 577.820312 265.546875 579.726562 C 268.109375 581.085938 268.210938 584.421875 268.210938 586.972656 C 268.191406 609.203125 268.183594 631.105469 268.191406 652.683594 C 268.191406 653.121094 268.410156 653.335938 268.84375 653.335938 Z M 268.84375 653.335938 " fill-opacity="1" fill-rule="nonzero"/><path fill="#ffffff" d="M 346.980469 590.15625 C 346.953125 611.394531 346.96875 634.476562 347.023438 659.398438 C 347.035156 665.214844 339.15625 666.800781 336.183594 662.09375 C 335.773438 661.445312 335.570312 660.773438 335.570312 660.085938 C 335.570312 636.769531 335.507812 613.480469 335.382812 590.21875 C 335.382812 590.019531 335.3125 589.851562 335.175781 589.714844 C 335.035156 589.578125 334.867188 589.507812 334.667969 589.511719 C 326.710938 589.574219 318.992188 589.566406 311.515625 589.492188 C 304.550781 589.417969 304.496094 578.960938 311.96875 578.949219 C 330.488281 578.921875 350.089844 578.921875 370.769531 578.949219 C 377.691406 578.960938 377.960938 589.355469 370.644531 589.46875 C 363.015625 589.589844 355.367188 589.578125 347.695312 589.441406 C 347.21875 589.433594 346.980469 589.671875 346.980469 590.15625 Z M 346.980469 590.15625 " fill-opacity="1" fill-rule="nonzero"/><path fill="#ffffff" d="M 403.511719 654.34375 C 417.523438 654.316406 431.847656 654.308594 446.480469 654.320312 C 454.691406 654.332031 454.039062 664.902344 446.710938 664.925781 C 429.753906 664.964844 413.277344 664.960938 397.28125 664.914062 C 391.15625 664.902344 391.050781 659.804688 391.09375 654.796875 C 391.308594 632.335938 391.34375 609.261719 391.195312 585.582031 C 391.167969 581.183594 393.207031 578.972656 397.3125 578.949219 C 416.132812 578.859375 432.742188 578.875 447.132812 578.992188 C 450.113281 579.011719 451.796875 580.457031 452.191406 583.324219 C 452.84375 588.0625 449.859375 589.574219 445.902344 589.5625 C 431.945312 589.542969 418.917969 589.546875 406.828125 589.574219 C 405.597656 589.574219 404.425781 589.480469 403.3125 589.292969 C 403.15625 589.269531 403.019531 589.308594 402.898438 589.414062 C 402.773438 589.519531 402.714844 589.652344 402.710938 589.8125 L 402.722656 615.238281 C 402.722656 615.851562 403.03125 616.160156 403.644531 616.160156 C 412.226562 616.144531 421.882812 616.152344 432.613281 616.179688 C 434.957031 616.1875 436.582031 616.441406 437.496094 616.945312 C 440.769531 618.761719 440.894531 624.285156 437.453125 626.089844 C 436.492188 626.59375 435.445312 626.839844 434.3125 626.824219 C 423.785156 626.761719 413.410156 626.769531 403.199219 626.84375 C 403.0625 626.84375 402.945312 626.894531 402.847656 626.988281 C 402.75 627.082031 402.703125 627.199219 402.703125 627.332031 L 402.710938 653.542969 C 402.710938 654.078125 402.976562 654.34375 403.511719 654.34375 Z M 403.511719 654.34375 " fill-opacity="1" fill-rule="nonzero"/><path fill="#ffffff" d="M 482.53125 632.515625 C 482.53125 639.9375 482.535156 648.894531 482.550781 659.390625 C 482.550781 666.695312 470.941406 666.902344 470.929688 658.859375 C 470.925781 632.734375 470.941406 608.175781 470.984375 585.179688 C 470.988281 581.082031 472.992188 579.011719 476.984375 578.972656 C 485.191406 578.875 492.453125 578.902344 498.761719 579.054688 C 512.429688 579.386719 523.582031 589.253906 524.578125 603.328125 C 525.402344 614.910156 520.839844 623.375 510.898438 628.722656 C 510.394531 628.992188 510.292969 629.371094 510.597656 629.859375 C 515.792969 638.179688 520.917969 646.417969 525.96875 654.570312 C 527.183594 656.527344 527.832031 658.050781 527.914062 659.140625 C 528.101562 661.640625 526.796875 664.0625 524.214844 664.707031 C 521.066406 665.496094 518.679688 664.34375 517.054688 661.691406 C 511.1875 652.191406 505.179688 642.488281 499.03125 632.585938 C 498.871094 632.332031 498.660156 632.132812 498.398438 631.988281 C 498.136719 631.839844 497.859375 631.769531 497.558594 631.769531 L 483.265625 631.769531 C 482.773438 631.769531 482.53125 632.015625 482.53125 632.515625 Z M 482.601562 589.824219 L 482.4375 620.792969 C 482.4375 620.890625 482.472656 620.976562 482.542969 621.046875 C 482.613281 621.121094 482.699219 621.15625 482.800781 621.15625 L 497.007812 621.226562 C 497.550781 621.230469 498.09375 621.207031 498.632812 621.160156 C 499.171875 621.113281 499.707031 621.042969 500.242188 620.945312 C 500.773438 620.847656 501.300781 620.726562 501.820312 620.582031 C 502.339844 620.4375 502.851562 620.269531 503.351562 620.074219 C 503.855469 619.882812 504.34375 619.667969 504.824219 619.429688 C 505.304688 619.191406 505.769531 618.929688 506.222656 618.652344 C 506.675781 618.371094 507.113281 618.066406 507.53125 617.746094 C 507.953125 617.425781 508.355469 617.085938 508.742188 616.726562 C 509.128906 616.367188 509.492188 615.992188 509.839844 615.597656 C 510.1875 615.207031 510.511719 614.796875 510.816406 614.375 C 511.117188 613.953125 511.398438 613.515625 511.65625 613.070312 C 511.914062 612.621094 512.148438 612.160156 512.359375 611.691406 C 512.570312 611.21875 512.753906 610.742188 512.914062 610.253906 C 513.074219 609.765625 513.210938 609.269531 513.320312 608.769531 C 513.425781 608.269531 513.507812 607.765625 513.566406 607.257812 C 513.621094 606.753906 513.652344 606.242188 513.652344 605.734375 L 513.652344 605.214844 C 513.65625 604.703125 513.632812 604.195312 513.582031 603.6875 C 513.53125 603.179688 513.453125 602.671875 513.351562 602.171875 C 513.246094 601.671875 513.117188 601.175781 512.964844 600.6875 C 512.808594 600.199219 512.628906 599.714844 512.421875 599.242188 C 512.21875 598.769531 511.988281 598.308594 511.734375 597.859375 C 511.484375 597.40625 511.207031 596.96875 510.90625 596.542969 C 510.609375 596.117188 510.289062 595.703125 509.945312 595.308594 C 509.601562 594.910156 509.242188 594.53125 508.859375 594.167969 C 508.476562 593.804688 508.078125 593.460938 507.660156 593.136719 C 507.242188 592.808594 506.808594 592.503906 506.359375 592.21875 C 505.910156 591.933594 505.449219 591.667969 504.972656 591.425781 C 504.492188 591.179688 504.003906 590.960938 503.503906 590.761719 C 503.003906 590.566406 502.496094 590.390625 501.976562 590.238281 C 501.460938 590.089844 500.933594 589.960938 500.402344 589.859375 C 499.871094 589.757812 499.335938 589.679688 498.796875 589.625 C 498.257812 589.574219 497.71875 589.546875 497.175781 589.542969 L 482.964844 589.460938 C 482.863281 589.460938 482.777344 589.496094 482.707031 589.566406 C 482.636719 589.636719 482.601562 589.722656 482.601562 589.824219 Z M 482.601562 589.824219 " fill-opacity="1" fill-rule="nonzero"/><path fill="#ffffff" d="M 554.863281 599.992188 C 554.71875 600.183594 554.644531 600.402344 554.644531 600.644531 C 554.652344 620.863281 554.644531 640.515625 554.625 659.609375 C 554.625 662.832031 551.410156 665.308594 548.386719 664.871094 C 544.875 664.367188 543.121094 662.203125 543.121094 658.375 C 543.101562 636.375 543.09375 611.953125 543.101562 585.117188 C 543.101562 578.816406 550.074219 576.597656 553.910156 581.707031 C 570.492188 603.796875 585.867188 624.242188 600.03125 643.046875 C 600.792969 644.0625 601.171875 643.9375 601.171875 642.671875 C 601.191406 624.152344 601.199219 604.757812 601.191406 584.484375 C 601.191406 577.3125 612.613281 576.878906 612.613281 584.246094 C 612.582031 610.613281 612.566406 635.824219 612.574219 659.875 C 612.582031 663.804688 608.136719 665.773438 604.789062 664.480469 C 602.582031 663.617188 601.390625 661.453125 599.980469 659.585938 C 585.027344 639.707031 570.097656 619.84375 555.183594 599.992188 C 555.144531 599.933594 555.09375 599.90625 555.023438 599.90625 C 554.957031 599.90625 554.902344 599.933594 554.863281 599.992188 Z M 554.863281 599.992188 " fill-opacity="1" fill-rule="nonzero"/><path fill="#ffffff" d="M 685.167969 646.777344 C 685.078125 646.550781 684.9375 646.371094 684.738281 646.234375 C 684.539062 646.097656 684.320312 646.03125 684.078125 646.03125 L 646.09375 646.039062 C 645.726562 646.039062 645.464844 646.210938 645.316406 646.546875 C 643.386719 650.992188 641.507812 655.570312 639.675781 660.292969 C 636.359375 668.851562 625.332031 664.511719 629.03125 655.804688 C 639.140625 632.035156 648.933594 608.625 658.40625 585.574219 C 659 584.128906 659.683594 582.742188 660.457031 581.417969 C 662.53125 577.820312 668.582031 578.078125 670.230469 581.996094 C 680.976562 607.46875 691.296875 632.074219 701.191406 655.824219 C 704.910156 664.757812 693.914062 668.292969 691.03125 661.339844 C 689.023438 656.472656 687.066406 651.621094 685.167969 646.777344 Z M 649.636719 635.769531 C 649.601562 635.855469 649.585938 635.949219 649.597656 636.042969 C 649.605469 636.136719 649.636719 636.226562 649.691406 636.304688 C 649.742188 636.382812 649.8125 636.445312 649.894531 636.488281 C 649.980469 636.535156 650.070312 636.558594 650.164062 636.558594 L 680.222656 636.609375 C 680.316406 636.609375 680.40625 636.585938 680.488281 636.542969 C 680.570312 636.496094 680.636719 636.4375 680.691406 636.359375 C 680.746094 636.28125 680.777344 636.195312 680.785156 636.101562 C 680.796875 636.007812 680.785156 635.917969 680.75 635.832031 L 665.785156 598.839844 C 665.6875 598.601562 665.511719 598.484375 665.257812 598.484375 C 665 598.484375 664.824219 598.601562 664.726562 598.839844 Z M 649.636719 635.769531 " fill-opacity="1" fill-rule="nonzero"/><path fill="#111013" d="M 482.601562 589.824219 C 482.601562 589.722656 482.636719 589.636719 482.707031 589.566406 C 482.777344 589.496094 482.863281 589.460938 482.964844 589.460938 L 497.175781 589.542969 C 497.71875 589.546875 498.257812 589.574219 498.796875 589.625 C 499.335938 589.679688 499.871094 589.757812 500.402344 589.859375 C 500.933594 589.960938 501.460938 590.089844 501.976562 590.238281 C 502.496094 590.390625 503.003906 590.566406 503.503906 590.761719 C 504.003906 590.960938 504.492188 591.179688 504.972656 591.425781 C 505.449219 591.667969 505.910156 591.933594 506.359375 592.21875 C 506.808594 592.503906 507.242188 592.808594 507.660156 593.136719 C 508.078125 593.460938 508.476562 593.804688 508.859375 594.167969 C 509.242188 594.53125 509.601562 594.910156 509.945312 595.308594 C 510.289062 595.703125 510.609375 596.117188 510.90625 596.542969 C 511.207031 596.96875 511.484375 597.40625 511.734375 597.859375 C 511.988281 598.308594 512.21875 598.769531 512.421875 599.242188 C 512.628906 599.714844 512.808594 600.199219 512.964844 600.6875 C 513.117188 601.175781 513.246094 601.671875 513.351562 602.171875 C 513.453125 602.671875 513.53125 603.179688 513.582031 603.6875 C 513.632812 604.195312 513.65625 604.703125 513.652344 605.214844 L 513.652344 605.734375 C 513.652344 606.242188 513.621094 606.753906 513.566406 607.257812 C 513.507812 607.765625 513.425781 608.269531 513.320312 608.769531 C 513.210938 609.269531 513.074219 609.765625 512.914062 610.253906 C 512.753906 610.742188 512.570312 611.21875 512.359375 611.691406 C 512.148438 612.160156 511.914062 612.621094 511.65625 613.070312 C 511.398438 613.515625 511.117188 613.953125 510.816406 614.375 C 510.511719 614.796875 510.1875 615.207031 509.839844 615.597656 C 509.492188 615.992188 509.128906 616.367188 508.742188 616.726562 C 508.355469 617.085938 507.953125 617.425781 507.53125 617.746094 C 507.113281 618.066406 506.675781 618.371094 506.222656 618.652344 C 505.769531 618.929688 505.304688 619.191406 504.824219 619.429688 C 504.34375 619.667969 503.855469 619.882812 503.351562 620.074219 C 502.851562 620.269531 502.339844 620.4375 501.820312 620.582031 C 501.300781 620.726562 500.773438 620.847656 500.242188 620.945312 C 499.707031 621.042969 499.171875 621.113281 498.632812 621.160156 C 498.09375 621.207031 497.550781 621.230469 497.007812 621.226562 L 482.800781 621.15625 C 482.699219 621.15625 482.613281 621.121094 482.542969 621.046875 C 482.472656 620.976562 482.4375 620.890625 482.4375 620.792969 Z M 482.601562 589.824219 " fill-opacity="1" fill-rule="nonzero"/><path fill="#111013" d="M 649.636719 635.769531 L 664.726562 598.839844 C 664.824219 598.601562 665 598.484375 665.257812 598.484375 C 665.511719 598.484375 665.6875 598.601562 665.785156 598.839844 L 680.75 635.832031 C 680.785156 635.917969 680.796875 636.007812 680.785156 636.101562 C 680.777344 636.195312 680.746094 636.28125 680.691406 636.359375 C 680.636719 636.4375 680.570312 636.496094 680.488281 636.542969 C 680.40625 636.585938 680.316406 636.609375 680.222656 636.609375 L 650.164062 636.558594 C 650.070312 636.558594 649.980469 636.535156 649.894531 636.488281 C 649.8125 636.445312 649.742188 636.382812 649.691406 636.304688 C 649.636719 636.226562 649.605469 636.136719 649.597656 636.042969 C 649.585938 635.949219 649.601562 635.855469 649.636719 635.769531 Z M 649.636719 635.769531 " fill-opacity="1" fill-rule="nonzero"/><path fill="#111013" d="M 189.089844 635.726562 L 204.105469 598.859375 C 204.210938 598.605469 204.398438 598.480469 204.671875 598.484375 C 204.945312 598.488281 205.128906 598.617188 205.226562 598.871094 L 220.121094 635.78125 C 220.160156 635.871094 220.171875 635.96875 220.160156 636.070312 C 220.152344 636.167969 220.117188 636.261719 220.0625 636.34375 C 220.007812 636.425781 219.933594 636.492188 219.84375 636.539062 C 219.753906 636.585938 219.660156 636.609375 219.558594 636.609375 L 189.636719 636.546875 C 189.539062 636.542969 189.449219 636.519531 189.363281 636.472656 C 189.273438 636.425781 189.203125 636.363281 189.148438 636.28125 C 189.09375 636.199219 189.0625 636.109375 189.050781 636.011719 C 189.039062 635.914062 189.054688 635.820312 189.089844 635.726562 Z M 189.089844 635.726562 " fill-opacity="1" fill-rule="nonzero"/></svg>